<svg width="124" height="56" viewBox="0 0 124 56" fill="none" xmlns="http://www.w3.org/2000/svg">
<g filter="url(#filter0_d_744_72639)">
<path d="M5.5 21.5173C5.5 16.1192 5.5 13.4201 6.50056 11.3439C7.45855 9.356 9.03982 7.74855 10.9953 6.77469C13.0377 5.75757 15.6928 5.75757 21.003 5.75757H33.9378C39.248 5.75757 41.9031 5.75757 43.9455 6.77469C45.901 7.74855 47.4823 9.356 48.4403 11.3439C49.4408 13.4201 49.4408 16.1192 49.4408 21.5173V34.6662C49.4408 40.0644 49.4408 42.7634 48.4403 44.8396C47.4823 46.8275 45.901 48.435 43.9455 49.4088C41.9031 50.4259 39.248 50.4259 33.9378 50.4259H21.003C15.6928 50.4259 13.0377 50.4259 10.9953 49.4088C9.03982 48.435 7.45855 46.8275 6.50056 44.8396C5.5 42.7634 5.5 40.0644 5.5 34.6662V21.5173Z" fill="url(#paint0_linear_744_72639)"/>
</g>
<mask id="mask0_744_72639" style="mask-type:alpha" maskUnits="userSpaceOnUse" x="5" y="5" width="45" height="46">
<path d="M5.5 21.5173C5.5 16.1192 5.5 13.4201 6.50056 11.3439C7.45855 9.356 9.03982 7.74855 10.9953 6.77469C13.0377 5.75757 15.6928 5.75757 21.003 5.75757H33.9378C39.248 5.75757 41.9031 5.75757 43.9455 6.77469C45.901 7.74855 47.4823 9.356 48.4403 11.3439C49.4408 13.4201 49.4408 16.1192 49.4408 21.5173V34.6662C49.4408 40.0644 49.4408 42.7634 48.4403 44.8396C47.4823 46.8275 45.901 48.435 43.9455 49.4088C41.9031 50.4259 39.248 50.4259 33.9378 50.4259H21.003C15.6928 50.4259 13.0377 50.4259 10.9953 49.4088C9.03982 48.435 7.45855 46.8275 6.50056 44.8396C5.5 42.7634 5.5 40.0644 5.5 34.6662V21.5173Z" fill="url(#paint1_linear_744_72639)"/>
</mask>
<g mask="url(#mask0_744_72639)">
<g filter="url(#filter1_d_744_72639)">
<path d="M5.5 21.5173C5.5 16.1192 5.5 13.4201 6.50056 11.3439C7.45855 9.356 9.03982 7.74855 10.9953 6.77469C13.0377 5.75757 15.6928 5.75757 21.003 5.75757H33.9378C39.248 5.75757 41.9031 5.75757 43.9455 6.77469C45.901 7.74855 47.4823 9.356 48.4403 11.3439C49.4408 13.4201 49.4408 16.1192 49.4408 21.5173V34.6662C49.4408 40.0644 49.4408 42.7634 48.4403 44.8396C47.4823 46.8275 45.901 48.435 43.9455 49.4088C41.9031 50.4259 39.248 50.4259 33.9378 50.4259H21.003C15.6928 50.4259 13.0377 50.4259 10.9953 49.4088C9.03982 48.435 7.45855 46.8275 6.50056 44.8396C5.5 42.7634 5.5 40.0644 5.5 34.6662V21.5173Z" fill="url(#paint2_linear_744_72639)"/>
</g>
<g filter="url(#filter2_d_744_72639)">
<path fill-rule="evenodd" clip-rule="evenodd" d="M33.9378 11.6122H21.003C18.2561 11.6122 16.5308 11.6164 15.2274 11.7211C13.9879 11.8207 13.6273 11.9833 13.529 12.0323C12.7213 12.4345 12.0682 13.0985 11.6725 13.9196C11.6244 14.0195 11.4643 14.3861 11.3664 15.646C11.2634 16.971 11.2592 18.7249 11.2592 21.5173V34.6662C11.2592 37.4586 11.2634 39.2125 11.3664 40.5375C11.4643 41.7975 11.6244 42.1641 11.6725 42.264C12.0682 43.085 12.7213 43.749 13.529 44.1512C13.6273 44.2002 13.9879 44.3628 15.2274 44.4624C16.5308 44.5671 18.2561 44.5713 21.003 44.5713H33.9378C36.6847 44.5713 38.41 44.5671 39.7134 44.4624C40.9529 44.3628 41.3135 44.2002 41.4118 44.1512C42.2195 43.749 42.8726 43.085 43.2683 42.264C43.3165 42.1641 43.4765 41.7975 43.5744 40.5375C43.6774 39.2125 43.6816 37.4586 43.6816 34.6662V21.5173C43.6816 18.7249 43.6774 16.971 43.5744 15.646C43.4765 14.3861 43.3165 14.0195 43.2683 13.9196C42.8726 13.0985 42.2195 12.4345 41.4118 12.0323C41.3135 11.9833 40.9529 11.8207 39.7134 11.7211C38.41 11.6164 36.6847 11.6122 33.9378 11.6122ZM6.50056 11.3439C5.5 13.4201 5.5 16.1192 5.5 21.5173V34.6662C5.5 40.0644 5.5 42.7634 6.50056 44.8396C7.45855 46.8275 9.03982 48.435 10.9953 49.4088C13.0377 50.4259 15.6928 50.4259 21.003 50.4259H33.9378C39.248 50.4259 41.9031 50.4259 43.9455 49.4088C45.901 48.435 47.4823 46.8275 48.4403 44.8396C49.4408 42.7634 49.4408 40.0644 49.4408 34.6662V21.5173C49.4408 16.1192 49.4408 13.4201 48.4403 11.3439C47.4823 9.356 45.901 7.74855 43.9455 6.77469C41.9031 5.75757 39.248 5.75757 33.9378 5.75757H21.003C15.6928 5.75757 13.0377 5.75757 10.9953 6.77469C9.03982 7.74855 7.45855 9.356 6.50056 11.3439Z" fill="black"/>
</g>
<path fill-rule="evenodd" clip-rule="evenodd" d="M33.9378 8.9017H21.003C18.2986 8.9017 16.4501 8.90399 15.0174 9.01907C13.6189 9.1314 12.8816 9.33648 12.356 9.59821C11.0169 10.2651 9.9341 11.3658 9.27808 12.7271C9.02062 13.2614 8.81888 14.0109 8.70838 15.4325C8.59517 16.889 8.59292 18.7681 8.59292 21.5173V34.6662C8.59292 37.4154 8.59517 39.2945 8.70838 40.751C8.81888 42.1726 9.02062 42.9221 9.27808 43.4564C9.9341 44.8177 11.0169 45.9184 12.356 46.5853C12.8816 46.847 13.6189 47.0521 15.0174 47.1644C16.4501 47.2795 18.2986 47.2818 21.003 47.2818H33.9378C36.6422 47.2818 38.4907 47.2795 39.9234 47.1644C41.3219 47.0521 42.0592 46.847 42.5848 46.5853C43.9239 45.9184 45.0067 44.8177 45.6627 43.4564C45.9202 42.9221 46.1219 42.1726 46.2324 40.751C46.3456 39.2945 46.3479 37.4154 46.3479 34.6662V21.5173C46.3479 18.7681 46.3456 16.889 46.2324 15.4325C46.1219 14.0109 45.9202 13.2614 45.6627 12.7271C45.0067 11.3658 43.9239 10.2651 42.5848 9.59821C42.0592 9.33648 41.3219 9.1314 39.9234 9.01907C38.4907 8.90399 36.6422 8.9017 33.9378 8.9017ZM6.50056 11.3439C5.5 13.4201 5.5 16.1192 5.5 21.5173V34.6662C5.5 40.0644 5.5 42.7634 6.50056 44.8396C7.45855 46.8275 9.03982 48.435 10.9953 49.4088C13.0377 50.4259 15.6928 50.4259 21.003 50.4259H33.9378C39.248 50.4259 41.9031 50.4259 43.9455 49.4088C45.901 48.435 47.4823 46.8275 48.4403 44.8396C49.4408 42.7634 49.4408 40.0644 49.4408 34.6662V21.5173C49.4408 16.1192 49.4408 13.4201 48.4403 11.3439C47.4823 9.356 45.901 7.74855 43.9455 6.77469C41.9031 5.75757 39.248 5.75757 33.9378 5.75757H21.003C15.6928 5.75757 13.0377 5.75757 10.9953 6.77469C9.03982 7.74855 7.45855 9.356 6.50056 11.3439Z" fill="url(#paint3_linear_744_72639)"/>
<path fill-rule="evenodd" clip-rule="evenodd" d="M8.99199 40.8074C9.10112 42.2113 9.2983 42.9187 9.5327 43.4051L9.26931 43.5363L9.5327 43.4051C10.1601 44.7069 11.1956 45.7597 12.4763 46.3974C12.9548 46.6357 13.6506 46.8362 15.0317 46.9471C16.4502 47.061 18.2851 47.0635 20.9942 47.0635H33.929C36.6382 47.0635 38.4731 47.061 39.8916 46.9471C41.2726 46.8362 41.9685 46.6357 42.447 46.3974C43.7276 45.7597 44.7632 44.7069 45.3906 43.4051C45.625 42.9187 45.8222 42.2113 45.9313 40.8074L46.516 40.8543C46.4042 42.2936 46.1979 43.0853 45.9173 43.6674C45.2327 45.0881 44.1026 46.2369 42.705 46.9329C42.1324 47.2181 41.3536 47.4278 39.9378 47.5415C38.4908 47.6578 36.6286 47.6598 33.929 47.6598H20.9942C18.2946 47.6598 16.4325 47.6578 14.9855 47.5415C13.5697 47.4278 12.7909 47.2181 12.2182 46.9329C10.8207 46.2369 9.69058 45.0881 9.00593 43.6674C8.7254 43.0853 8.5191 42.2936 8.40723 40.8543L8.99199 40.8074Z" fill="url(#paint4_linear_744_72639)" fill-opacity="0.33"/>
<path d="M6.78782 44.5881C7.71457 46.5112 9.24428 48.0662 11.136 49.0083C12.1059 49.4914 13.2351 49.7406 14.7989 49.8662C16.3662 49.9921 18.3427 49.9923 21.0029 49.9923H33.9377C36.5979 49.9923 38.5745 49.9921 40.1418 49.8662C41.7056 49.7406 42.8347 49.4914 43.8046 49.0083C45.6964 48.0662 47.2261 46.5112 48.1529 44.5881L48.4402 44.7312C47.4822 46.7191 45.9009 48.3266 43.9454 49.3004C41.903 50.3176 39.2479 50.3176 33.9377 50.3176H21.0029C15.6927 50.3176 13.0377 50.3176 10.9953 49.3004C9.03976 48.3266 7.45848 46.7191 6.50049 44.7312L6.78782 44.5881Z" fill="black" fill-opacity="0.24"/>
<g filter="url(#filter3_f_744_72639)">
<path d="M24.0884 24.275C24.0884 22.1671 22.5044 20.4583 20.5645 20.4583C18.6247 20.4583 17.0407 22.1671 17.0407 24.275C17.0407 26.3829 18.6247 28.0917 20.5645 28.0917C22.5044 28.0917 24.0884 26.3829 24.0884 24.275Z" fill="white"/>
</g>
<g filter="url(#filter4_f_744_72639)">
<path d="M28.5728 25.4329H37.9002V28.0916H28.5728V25.4329Z" fill="white"/>
</g>
</g>
<path d="M111.673 34.8356V32.7238H115.646V22.1648H111.673V20.053H123.593V22.1648H119.62V32.7238H123.593V34.8356H111.673Z" fill="white"/>
<path d="M93.7896 34.8356V24.2766H95.7763V22.1648H97.7631V20.053H103.723V22.1648H105.71V24.2766H107.697V34.8356H103.723V30.612H97.7631V34.8356H93.7896ZM97.7631 28.5002H103.723V24.2766H101.737V22.1648H99.7499V24.2766H97.7631V28.5002Z" fill="white"/>
<path d="M77.8955 36.947V34.8352H91.8029V36.947H77.8955Z" fill="white"/>
<path d="M62.001 34.8356V20.053H65.9745V26.3884H67.9613V24.2766H69.9481V22.1648H71.9348V20.053H75.9084V22.1648H73.9216V24.2766H71.9348V26.3884H69.9481V28.5002H71.9348V30.612H73.9216V32.7238H75.9084V34.8356H69.9481V32.7238H67.9613V30.612H65.9745V34.8356H62.001Z" fill="white"/>
<defs>
<filter id="filter0_d_744_72639" x="5.125" y="5.50757" width="44.6909" height="45.4185" filterUnits="userSpaceOnUse" color-interpolation-filters="sRGB">
<feFlood flood-opacity="0" result="BackgroundImageFix"/>
<feColorMatrix in="SourceAlpha" type="matrix" values="0 0 0 0 0 0 0 0 0 0 0 0 0 0 0 0 0 0 127 0" result="hardAlpha"/>
<feOffset dy="0.125"/>
<feGaussianBlur stdDeviation="0.1875"/>
<feColorMatrix type="matrix" values="0 0 0 0 0 0 0 0 0 0 0 0 0 0 0 0 0 0 0.6 0"/>
<feBlend mode="normal" in2="BackgroundImageFix" result="effect1_dropShadow_744_72639"/>
<feBlend mode="normal" in="SourceGraphic" in2="effect1_dropShadow_744_72639" result="shape"/>
</filter>
<filter id="filter1_d_744_72639" x="5.125" y="5.50757" width="44.6909" height="45.4185" filterUnits="userSpaceOnUse" color-interpolation-filters="sRGB">
<feFlood flood-opacity="0" result="BackgroundImageFix"/>
<feColorMatrix in="SourceAlpha" type="matrix" values="0 0 0 0 0 0 0 0 0 0 0 0 0 0 0 0 0 0 127 0" result="hardAlpha"/>
<feOffset dy="0.125"/>
<feGaussianBlur stdDeviation="0.1875"/>
<feColorMatrix type="matrix" values="0 0 0 0 0 0 0 0 0 0 0 0 0 0 0 0 0 0 0.6 0"/>
<feBlend mode="normal" in2="BackgroundImageFix" result="effect1_dropShadow_744_72639"/>
<feBlend mode="normal" in="SourceGraphic" in2="effect1_dropShadow_744_72639" result="shape"/>
</filter>
<filter id="filter2_d_744_72639" x="2.75" y="4.38257" width="49.4409" height="50.1685" filterUnits="userSpaceOnUse" color-interpolation-filters="sRGB">
<feFlood flood-opacity="0" result="BackgroundImageFix"/>
<feColorMatrix in="SourceAlpha" type="matrix" values="0 0 0 0 0 0 0 0 0 0 0 0 0 0 0 0 0 0 127 0" result="hardAlpha"/>
<feOffset dy="1.375"/>
<feGaussianBlur stdDeviation="1.375"/>
<feColorMatrix type="matrix" values="0 0 0 0 0 0 0 0 0 0 0 0 0 0 0 0 0 0 0.28 0"/>
<feBlend mode="normal" in2="BackgroundImageFix" result="effect1_dropShadow_744_72639"/>
<feBlend mode="normal" in="SourceGraphic" in2="effect1_dropShadow_744_72639" result="shape"/>
</filter>
<filter id="filter3_f_744_72639" x="16.5405" y="19.9583" width="8.04785" height="8.63354" filterUnits="userSpaceOnUse" color-interpolation-filters="sRGB">
<feFlood flood-opacity="0" result="BackgroundImageFix"/>
<feBlend mode="normal" in="SourceGraphic" in2="BackgroundImageFix" result="shape"/>
<feGaussianBlur stdDeviation="0.25" result="effect1_foregroundBlur_744_72639"/>
</filter>
<filter id="filter4_f_744_72639" x="28.0728" y="24.9329" width="10.3276" height="3.65869" filterUnits="userSpaceOnUse" color-interpolation-filters="sRGB">
<feFlood flood-opacity="0" result="BackgroundImageFix"/>
<feBlend mode="normal" in="SourceGraphic" in2="BackgroundImageFix" result="shape"/>
<feGaussianBlur stdDeviation="0.25" result="effect1_foregroundBlur_744_72639"/>
</filter>
<linearGradient id="paint0_linear_744_72639" x1="16.1652" y1="5.10706" x2="34.7215" y2="56.3046" gradientUnits="userSpaceOnUse">
<stop stop-color="#131414"/>
<stop offset="1" stop-color="#4D4D4D"/>
</linearGradient>
<linearGradient id="paint1_linear_744_72639" x1="16.1652" y1="5.10706" x2="34.7215" y2="56.3046" gradientUnits="userSpaceOnUse">
<stop stop-color="#131414"/>
<stop offset="1" stop-color="#4D4D4D"/>
</linearGradient>
<linearGradient id="paint2_linear_744_72639" x1="27.4704" y1="5.75757" x2="27.4704" y2="50.4259" gradientUnits="userSpaceOnUse">
<stop stop-color="#413F3F"/>
<stop offset="1"/>
</linearGradient>
<linearGradient id="paint3_linear_744_72639" x1="29.1502" y1="0.0927084" x2="29.1502" y2="60.5088" gradientUnits="userSpaceOnUse">
<stop stop-color="#D2D2D2"/>
<stop offset="0.0001" stop-color="#D2D2D2"/>
<stop offset="0.604167" stop-color="#B0B0B0"/>
<stop offset="0.760417" stop-color="#C7C7C7"/>
<stop offset="1" stop-color="white"/>
</linearGradient>
<linearGradient id="paint4_linear_744_72639" x1="11.1526" y1="42.0235" x2="44.1082" y2="41.9185" gradientUnits="userSpaceOnUse">
<stop stop-color="white" stop-opacity="0"/>
<stop offset="0.517846" stop-color="white"/>
<stop offset="1" stop-color="white" stop-opacity="0"/>
</linearGradient>
</defs>
</svg>
