<svg width="164" height="29" viewBox="0 0 164 29" fill="none" xmlns="http://www.w3.org/2000/svg">
<path fill-rule="evenodd" clip-rule="evenodd" d="M18.2084 8.57578C17.0367 7.79288 15.6592 7.375 14.25 7.375V0.25C17.0684 0.25 19.8235 1.08575 22.1669 2.65156C24.5103 4.21736 26.3367 6.44292 27.4153 9.04674C28.4938 11.6506 28.776 14.5158 28.2262 17.28C27.6764 20.0443 26.3192 22.5834 24.3263 24.5763C22.3334 26.5692 19.7943 27.9264 17.03 28.4762C14.2658 29.026 11.4006 28.7438 8.79674 27.6653C6.19291 26.5867 3.96736 24.7603 2.40156 22.4169C0.835748 20.0735 0 17.3184 0 14.5H7.125C7.125 15.9092 7.54288 17.2867 8.32578 18.4584C9.10867 19.6301 10.2215 20.5434 11.5234 21.0826C12.8253 21.6219 14.2579 21.763 15.64 21.4881C17.0221 21.2132 18.2917 20.5346 19.2882 19.5382C20.2846 18.5417 20.9632 17.2721 21.2381 15.89C21.513 14.5079 21.3719 13.0753 20.8326 11.7734C20.2934 10.4715 19.3801 9.35867 18.2084 8.57578Z" fill="white"/>
<path d="M38.0001 22.75L33.3203 6.16818H36.5509L39.5385 18.3536H39.6923L42.8824 6.16818H45.8215L49.0196 18.3616H49.1653L52.153 6.16818H55.3835L50.7037 22.75H47.7403L44.4207 11.1152H44.2912L40.9635 22.75H38.0001ZM61.5734 22.9929C60.3265 22.9929 59.2497 22.7338 58.3428 22.2156C57.4414 21.692 56.7478 20.9526 56.262 19.9972C55.7762 19.0364 55.5333 17.9055 55.5333 16.6047C55.5333 15.3254 55.7762 14.2027 56.262 13.2365C56.7532 12.2649 57.4387 11.5092 58.3185 10.9695C59.1984 10.4243 60.232 10.1517 61.4195 10.1517C62.186 10.1517 62.9093 10.2758 63.5894 10.5241C64.2749 10.767 64.8795 11.1449 65.4031 11.6577C65.932 12.1705 66.3477 12.8236 66.6499 13.617C66.9522 14.4051 67.1033 15.3443 67.1033 16.4347V17.3334H56.9097V15.3578H64.2938C64.2884 14.7964 64.167 14.2972 63.9295 13.8599C63.692 13.4173 63.36 13.0692 62.9336 12.8155C62.5126 12.5618 62.0214 12.4349 61.46 12.4349C60.8609 12.4349 60.3346 12.5807 59.8812 12.8722C59.4278 13.1582 59.0742 13.5361 58.8205 14.0057C58.5722 14.4699 58.4454 14.98 58.44 15.5359V17.2605C58.44 17.9838 58.5722 18.6045 58.8367 19.1227C59.1012 19.6355 59.471 20.0295 59.946 20.3048C60.421 20.5747 60.9769 20.7097 61.6139 20.7097C62.0403 20.7097 62.4262 20.6503 62.7717 20.5315C63.1171 20.4074 63.4167 20.2266 63.6704 19.9891C63.9241 19.7516 64.1157 19.4574 64.2452 19.1065L66.9819 19.4142C66.8092 20.1375 66.4799 20.769 65.9941 21.3088C65.5137 21.8432 64.8984 22.2588 64.1481 22.5557C63.3978 22.8472 62.5396 22.9929 61.5734 22.9929ZM73.1616 23.001C72.3736 23.001 71.6638 22.8607 71.0322 22.58C70.4061 22.2939 69.9095 21.8729 69.5424 21.3169C69.1808 20.7609 69 20.0754 69 19.2604C69 18.5587 69.1295 17.9784 69.3886 17.5196C69.6477 17.0608 70.0013 16.6937 70.4493 16.4185C70.8973 16.1432 71.402 15.9354 71.9633 15.795C72.5301 15.6493 73.1157 15.544 73.7203 15.4793C74.449 15.4037 75.04 15.3362 75.4934 15.2768C75.9468 15.2121 76.2761 15.1149 76.4812 14.9854C76.6917 14.8504 76.797 14.6426 76.797 14.3619V14.3134C76.797 13.7034 76.6162 13.2311 76.2545 12.8964C75.8929 12.5618 75.372 12.3945 74.6919 12.3945C73.974 12.3945 73.4045 12.551 72.9835 12.8641C72.5679 13.1771 72.2872 13.5469 72.1415 13.9733L69.4048 13.5847C69.6207 12.829 69.977 12.1974 70.4736 11.6901C70.9701 11.1773 71.5774 10.794 72.2953 10.5403C73.0132 10.2812 73.8067 10.1517 74.6757 10.1517C75.2748 10.1517 75.8713 10.2219 76.465 10.3622C77.0588 10.5026 77.6013 10.7347 78.0924 11.0585C78.5836 11.377 78.9777 11.8115 79.2745 12.3621C79.5768 12.9126 79.728 13.6008 79.728 14.4267V22.75H76.9103V21.0416H76.8132C76.6351 21.3871 76.3841 21.7109 76.0602 22.0132C75.7417 22.3101 75.3396 22.5503 74.8538 22.7338C74.3734 22.9119 73.8093 23.001 73.1616 23.001ZM73.9227 20.8473C74.5111 20.8473 75.0211 20.7312 75.453 20.4991C75.8848 20.2616 76.2167 19.9486 76.4488 19.5599C76.6863 19.1713 76.8051 18.7476 76.8051 18.2888V16.8233C76.7133 16.8989 76.5568 16.969 76.3355 17.0338C76.1196 17.0986 75.8767 17.1553 75.6068 17.2038C75.3369 17.2524 75.0697 17.2956 74.8052 17.3334C74.5407 17.3712 74.3113 17.4035 74.117 17.4305C73.6798 17.4899 73.2885 17.5871 72.943 17.722C72.5976 17.857 72.325 18.0459 72.1253 18.2888C71.9255 18.5263 71.8257 18.8339 71.8257 19.2118C71.8257 19.7516 72.0227 20.1591 72.4167 20.4344C72.8108 20.7097 73.3128 20.8473 73.9227 20.8473ZM85.6061 6.16818V22.75H82.6751V6.16818H85.6061ZM94.8301 10.3136V12.5807H87.6808V10.3136H94.8301ZM89.4459 7.33409H92.3769V19.0094C92.3769 19.4034 92.4362 19.7057 92.555 19.9162C92.6791 20.1213 92.8411 20.2616 93.0408 20.3372C93.2405 20.4128 93.4618 20.4506 93.7047 20.4506C93.8882 20.4506 94.0556 20.4371 94.2067 20.4101C94.3632 20.3831 94.482 20.3588 94.5629 20.3372L95.0568 22.6286C94.9003 22.6825 94.6763 22.7419 94.3848 22.8067C94.0987 22.8714 93.7479 22.9092 93.3323 22.92C92.5982 22.9416 91.9369 22.831 91.3486 22.5881C90.7602 22.3398 90.2933 21.9565 89.9479 21.4384C89.6078 20.9202 89.4405 20.2724 89.4459 19.4952V7.33409ZM100.48 15.4631V22.75H97.5486V6.16818H100.415V12.4268H100.56C100.852 11.7251 101.303 11.1719 101.913 10.767C102.528 10.3568 103.311 10.1517 104.261 10.1517C105.124 10.1517 105.877 10.3325 106.52 10.6942C107.162 11.0558 107.659 11.5848 108.009 12.2811C108.366 12.9774 108.544 13.8276 108.544 14.8315V22.75H105.613V15.2849C105.613 14.4483 105.397 13.7979 104.965 13.3337C104.539 12.8641 103.939 12.6293 103.168 12.6293C102.649 12.6293 102.185 12.7426 101.775 12.9693C101.37 13.1906 101.052 13.5118 100.82 13.9328C100.593 14.3538 100.48 14.8639 100.48 15.4631ZM113.993 22.75L109.313 6.16818H112.543L115.531 18.3536H115.685L118.875 6.16818H121.814L125.012 18.3616H125.158L128.146 6.16818H131.376L126.696 22.75H123.733L120.413 11.1152H120.284L116.956 22.75H113.993ZM133.329 22.75V10.3136H136.26V22.75H133.329ZM134.803 8.54858C134.339 8.54858 133.939 8.39474 133.605 8.08707C133.27 7.774 133.103 7.39886 133.103 6.96164C133.103 6.51903 133.27 6.14389 133.605 5.83622C133.939 5.52315 134.339 5.36662 134.803 5.36662C135.273 5.36662 135.672 5.52315 136.001 5.83622C136.336 6.14389 136.503 6.51903 136.503 6.96164C136.503 7.39886 136.336 7.774 136.001 8.08707C135.672 8.39474 135.273 8.54858 134.803 8.54858ZM149.104 13.6009L146.432 13.8923C146.356 13.6224 146.224 13.3687 146.035 13.1312C145.851 12.8937 145.603 12.7021 145.29 12.5564C144.977 12.4107 144.594 12.3378 144.14 12.3378C143.53 12.3378 143.018 12.47 142.602 12.7345C142.192 12.999 141.989 13.3418 141.995 13.7628C141.989 14.1244 142.122 14.4186 142.392 14.6453C142.667 14.872 143.12 15.0582 143.752 15.204L145.873 15.6574C147.05 15.9111 147.924 16.3132 148.496 16.8638C149.074 17.4143 149.365 18.1349 149.371 19.0256C149.365 19.8082 149.136 20.4991 148.683 21.0983C148.235 21.692 147.611 22.1562 146.812 22.4909C146.013 22.8256 145.096 22.9929 144.059 22.9929C142.537 22.9929 141.312 22.6744 140.384 22.0375C139.455 21.3952 138.902 20.5018 138.724 19.3575L141.582 19.0822C141.711 19.6436 141.987 20.0673 142.408 20.3534C142.829 20.6395 143.377 20.7825 144.051 20.7825C144.748 20.7825 145.306 20.6395 145.727 20.3534C146.154 20.0673 146.367 19.7138 146.367 19.2928C146.367 18.9365 146.229 18.6423 145.954 18.4102C145.684 18.1781 145.263 18 144.691 17.8759L142.57 17.4305C141.377 17.1822 140.494 16.7639 139.922 16.1756C139.35 15.5818 139.067 14.8315 139.072 13.9247C139.067 13.1582 139.274 12.4943 139.695 11.933C140.122 11.3662 140.713 10.929 141.469 10.6213C142.23 10.3082 143.107 10.1517 144.1 10.1517C145.557 10.1517 146.704 10.4621 147.541 11.0828C148.383 11.7035 148.904 12.5429 149.104 13.6009ZM157.293 22.9929C156.046 22.9929 154.97 22.7338 154.063 22.2156C153.161 21.692 152.468 20.9526 151.982 19.9972C151.496 19.0364 151.253 17.9055 151.253 16.6047C151.253 15.3254 151.496 14.2027 151.982 13.2365C152.473 12.2649 153.159 11.5092 154.038 10.9695C154.918 10.4243 155.952 10.1517 157.139 10.1517C157.906 10.1517 158.629 10.2758 159.309 10.5241C159.995 10.767 160.599 11.1449 161.123 11.6577C161.652 12.1705 162.068 12.8236 162.37 13.617C162.672 14.4051 162.823 15.3443 162.823 16.4347V17.3334H152.63V15.3578H160.014C160.008 14.7964 159.887 14.2972 159.649 13.8599C159.412 13.4173 159.08 13.0692 158.654 12.8155C158.233 12.5618 157.741 12.4349 157.18 12.4349C156.581 12.4349 156.055 12.5807 155.601 12.8722C155.148 13.1582 154.794 13.5361 154.54 14.0057C154.292 14.4699 154.165 14.98 154.16 15.5359V17.2605C154.16 17.9838 154.292 18.6045 154.557 19.1227C154.821 19.6355 155.191 20.0295 155.666 20.3048C156.141 20.5747 156.697 20.7097 157.334 20.7097C157.76 20.7097 158.146 20.6503 158.492 20.5315C158.837 20.4074 159.137 20.2266 159.39 19.9891C159.644 19.7516 159.836 19.4574 159.965 19.1065L162.702 19.4142C162.529 20.1375 162.2 20.769 161.714 21.3088C161.234 21.8432 160.618 22.2588 159.868 22.5557C159.118 22.8472 158.26 22.9929 157.293 22.9929Z" fill="white"/>
<path fill-rule="evenodd" clip-rule="evenodd" d="M7.03326 0.250004C7.03326 1.18567 6.85134 2.11218 6.49789 2.97663C6.14443 3.84107 5.62637 4.62652 4.97327 5.28814C4.32017 5.94976 3.54483 6.47458 2.69151 6.83265C1.8382 7.19071 0.923618 7.375 3.07431e-07 7.375L0 14.5C1.84724 14.5 3.6764 14.1314 5.38303 13.4153C7.08967 12.6992 8.64036 11.6495 9.94651 10.3263C11.2527 9.00307 12.2889 7.43215 12.9958 5.70324C13.7027 3.97435 14.0665 2.12133 14.0665 0.25L7.03326 0.250004Z" fill="white"/>
</svg>
